#!OML:ASF E:\pregnant2\Project 1\Capture day 1\Session 1\pregnant2.ASF
:FULLY-SPECIFIED
:DEGREES
2214
root 9.16746 11.1211 18.335 34.3702 -1.44305 -3.08486
lowerback -54.3823 2.92094 2.70498
upperback -10.1984 1.95364 -0.175951
thorax 9.6843 0.867734 -0.547679
lowerneck -7.59541 8.16211 14.6391
upperneck 34.4422 9.278 -0.174976
head 13.7859 6.03784 -1.2047
rclavicle -5.76476e-015 1.19271e-015
rhumerus -39.486 24.5502 -78.3563
rradius 79.8513
rwrist 33.6101
rhand 22.4647 -5.10841
rfingers 7.12502
rthumb 46.8238 -27.8518
lclavicle -5.76476e-015 1.19271e-015
lhumerus -45.0224 -21.1425 79.1692
lradius 84.8496
lwrist -24.8285
lhand 15.4083 23.5861
lfingers 7.12502
lthumb 40.2358 48.7406
rfemur -115.85 1.12251 26.7692
rtibia 87.6992
rfoot -2.81591 -6.42983
rtoes 3.0581
lfemur -117.635 2.56426 -21.385
ltibia 89.7104
lfoot -4.50326 -0.630032
ltoes -15.0991
2215
root 9.16607 11.1205 18.3343 34.3383 -1.45285 -3.09215
lowerback -54.3787 2.93321 2.70065
upperback -10.2326 1.97505 -0.203541
thorax 9.64642 0.87577 -0.567047
lowerneck -7.65733 8.16155 14.6766
upperneck 34.4594 9.25615 -0.165651
head 13.8079 6.03415 -1.20684
rclavicle 1.3418e-015 -2.0276e-014
rhumerus -39.5477 24.5094 -78.4243
rradius 79.7917
rwrist 33.6392
rhand 22.3955 -5.05365
rfingers 7.12502
rthumb 46.7598 -27.825
lclavicle 1.3418e-015 -2.0276e-014
lhumerus -45.0509 -21.2259 79.1672
lradius 84.7765
lwrist -24.8556
lhand 15.4047 23.588
lfingers 7.12502
lthumb 40.2325 48.7435
rfemur -115.819 1.13289 26.7849
rtibia 87.7034
rfoot -2.81652 -6.42685
rtoes 3.07372
lfemur -117.611 2.58394 -21.3815
ltibia 89.7229
lfoot -4.50517 -0.63227
ltoes -15.1022
2216
root 9.16476 11.1199 18.334 34.3143 -1.46272 -3.10032
lowerback -54.3752 2.94289 2.69593
upperback -10.259 1.9929 -0.226868
thorax 9.61739 0.882475 -0.583028
lowerneck -7.72943 8.16601 14.7078
upperneck 34.4573 9.24252 -0.161836
head 13.8239 6.03171 -1.20885
rclavicle -9.19379e-015 1.98785e-016
rhumerus -39.5958 24.4728 -78.4799
rradius 79.7454
rwrist 33.6669
rhand 22.3455 -4.99612
rfingers 7.12502
rthumb 46.7135 -27.7875
lclavicle -9.19379e-015 1.98785e-016
lhumerus -45.069 -21.2946 79.1603
lradius 84.7166
lwrist -24.8757
lhand 15.3997 23.5965
lfingers 7.12502
lthumb 40.2277 48.7535
rfemur -115.796 1.14397 26.8021
rtibia 87.7075
rfoot -2.81844 -6.42298
rtoes 3.08714
lfemur -117.594 2.60345 -21.3767
ltibia 89.7353
lfoot -4.5084 -0.633259
ltoes -15.1039
2217
root 9.1636 11.1196 18.3342 34.3008 -1.47125 -3.10922
lowerback -54.3776 2.95262 2.69191
upperback -10.2781 2.0099 -0.248596
thorax 9.597 0.888957 -0.597746
lowerneck -7.8057 8.17173 14.7373
upperneck 34.4369 9.23261 -0.166371
head 13.8331 6.02889 -1.21358
rclavicle -4.47266e-016 2.06736e-014
rhumerus -39.6361 24.4335 -78.5245
rradius 79.7127
rwrist 33.6948
rhand 22.3059 -4.92918
rfingers 7.12502
rthumb 46.6769 -27.7364
lclavicle -4.47266e-016 2.06736e-014
lhumerus -45.0809 -21.3564 79.1508
lradius 84.671
lwrist -24.8848
lhand 15.3896 23.6144
lfingers 7.12502
lthumb 40.2183 48.7743
rfemur -115.78 1.1544 26.8214
rtibia 87.7105
rfoot -2.8219 -6.41766
rtoes 3.08742
lfemur -117.585 2.6209 -21.3695
ltibia 89.7464
lfoot -4.51257 -0.632762
ltoes -15.1038
2218
root 9.16222 11.119 18.3345 34.2917 -1.47734 -3.11425
lowerback -54.3678 2.95091 2.68165
upperback -10.2953 2.01611 -0.262228
thorax 9.57724 0.890994 -0.60571
lowerneck -7.88854 8.18419 14.7559
upperneck 34.4097 9.23366 -0.171216
head 13.8407 6.02904 -1.21484
rclavicle -1.2424e-015 -2.38542e-015
rhumerus -39.6663 24.4055 -78.5604
rradius 79.694
rwrist 33.7107
rhand 22.3119 -4.87928
rfingers 7.12502
rthumb 46.6824 -27.6842
lclavicle -1.2424e-015 -2.38542e-015
lhumerus -45.0886 -21.3933 79.1354
lradius 84.6389
lwrist -24.8962
lhand 15.3734 23.6154
lfingers 7.12502
lthumb 40.203 48.7799
rfemur -115.772 1.16252 26.8377
rtibia 87.7147
rfoot -2.82364 -6.41348
rtoes 3.08212
lfemur -117.581 2.63472 -21.3649
ltibia 89.7568
lfoot -4.51733 -0.632684
ltoes -15.1034
2219
root 9.1609 11.1185 18.3349 34.2867 -1.48113 -3.12054
lowerback -54.347 2.94872 2.67224
upperback -10.31 2.02159 -0.274652
thorax 9.55931 0.892847 -0.613148
lowerneck -7.97807 8.19842 14.7731
upperneck 34.3736 9.23749 -0.180186
head 13.8461 6.02924 -1.21697
rclavicle -1.49089e-016 -1.11319e-014
rhumerus -39.6914 24.3703 -78.5866
rradius 79.6893
rwrist 33.7246
rhand 22.2898 -4.8229
rfingers 7.12502
rthumb 46.6619 -27.6366
lclavicle -1.49089e-016 -1.11319e-014
lhumerus -45.0883 -21.4264 79.116
lradius 84.6186
lwrist -24.9051
lhand 15.3548 23.6212
lfingers 7.12502
lthumb 40.1855 48.791
rfemur -115.767 1.16994 26.8558
rtibia 87.7193
rfoot -2.82502 -6.40807
rtoes 3.07035
lfemur -117.582 2.64721 -21.3576
ltibia 89.7668
lfoot -4.52252 -0.632869
ltoes -15.1059
2220
root 9.15967 11.1179 18.3355 34.2871 -1.48341 -3.12701
lowerback -54.3226 2.94793 2.66319
upperback -10.3199 2.02882 -0.287642
thorax 9.54655 0.895566 -0.620548
lowerneck -8.07344 8.21409 14.7911
upperneck 34.3291 9.24306 -0.19264
head 13.8494 6.02945 -1.22026
rclavicle -7.8023e-015 -1.35174e-014
rhumerus -39.713 24.3254 -78.6021
rradius 79.6991
rwrist 33.7342
rhand 22.2833 -4.76379
rfingers 7.12502
rthumb 46.6559 -27.5801
lclavicle -7.8023e-015 -1.35174e-014
lhumerus -45.0828 -21.4596 79.0932
lradius 84.6126
lwrist -24.9152
lhand 15.3345 23.626
lfingers 7.12502
lthumb 40.1664 48.8016
rfemur -115.769 1.17647 26.8741
rtibia 87.7244
rfoot -2.82766 -6.40145
rtoes 3.05694
lfemur -117.589 2.65806 -21.3494
ltibia 89.7767
lfoot -4.52797 -0.632135
ltoes -15.108
2221
root 9.1585 11.1173 18.3363 34.2914 -1.48358 -3.1337
lowerback -54.2912 2.94697 2.65471
upperback -10.3261 2.03573 -0.299741
thorax 9.53738 0.898273 -0.627383
lowerneck -8.17189 8.23142 14.8079
upperneck 34.2771 9.25133 -0.207587
head 13.8502 6.03001 -1.22394
rclavicle 3.08116e-015 2.5842e-015
rhumerus -39.7298 24.2751 -78.6079
rradius 79.7229
rwrist 33.7383
rhand 22.2497 -4.70967
rfingers 7.12502
rthumb 46.6248 -27.5394
lclavicle 3.08116e-015 2.5842e-015
lhumerus -45.0712 -21.4891 79.0668
lradius 84.6169
lwrist -24.9311
lhand 15.317 23.6349
lfingers 7.12502
lthumb 40.15 48.8155
rfemur -115.774 1.18187 26.8925
rtibia 87.7302
rfoot -2.83146 -6.39548
rtoes 3.05239
lfemur -117.599 2.6669 -21.3397
ltibia 89.7868
lfoot -4.53182 -0.632062
ltoes -15.1139
2222
root 9.15741 11.1166 18.3372 34.2978 -1.4821 -3.14097
lowerback -54.2512 2.94744 2.64737
upperback -10.3272 2.04407 -0.311758
thorax 9.53322 0.901748 -0.634018
lowerneck -8.27429 8.25041 14.8213
upperneck 34.2145 9.26202 -0.22349
head 13.8471 6.03062 -1.22715
rclavicle -6.85807e-015 -1.8487e-014
rhumerus -39.7387 24.2166 -78.6017
rradius 79.7587
rwrist 33.7383
rhand 22.2166 -4.65975
rfingers 7.12502
rthumb 46.5942 -27.5027
lclavicle -6.85807e-015 -1.8487e-014
lhumerus -45.0497 -21.5166 79.0378
lradius 84.6305
lwrist -24.9552
lhand 15.2927 23.6398
lfingers 7.12502
lthumb 40.1271 48.8274
rfemur -115.782 1.18659 26.9114
rtibia 87.7371
rfoot -2.83553 -6.3896
rtoes 3.04528
lfemur -117.612 2.6746 -21.3289
ltibia 89.7973
lfoot -4.53477 -0.632555
ltoes -15.1213
2223
root 9.15642 11.116 18.3383 34.307 -1.47867 -3.14831
lowerback -54.2048 2.94643 2.64083
upperback -10.3236 2.04998 -0.320292
thorax 9.5335 0.90437 -0.638278
lowerneck -8.37198 8.2714 14.831
upperneck 34.1383 9.27852 -0.244066
head 13.8373 6.03228 -1.23123
rclavicle -9.0447e-015 -5.1684e-015
rhumerus -39.7367 24.1591 -78.5832
rradius 79.8035
rwrist 33.7358
rhand 22.1783 -4.6117
rfingers 7.12502
rthumb 46.5586 -27.4699
lclavicle -9.0447e-015 -5.1684e-015
lhumerus -45.0215 -21.534 79.0078
lradius 84.6516
lwrist -24.989
lhand 15.2614 23.6372
lfingers 7.12502
lthumb 40.0976 48.8337
rfemur -115.792 1.19005 26.9306
rtibia 87.7441
rfoot -2.8416 -6.38521
rtoes 3.04931
lfemur -117.628 2.68043 -21.3172
ltibia 89.8074
lfoot -4.53472 -0.634744
ltoes -15.1262
2224
root 9.15553 11.1155 18.3394 34.3195 -1.47275 -3.15616
lowerback -54.153 2.94476 2.63602
upperback -10.3154 2.05405 -0.326476
thorax 9.53852 0.906353 -0.641544
lowerneck -8.46408 8.29457 14.8383
upperneck 34.0477 9.30056 -0.268128
head 13.8203 6.03516 -1.23598
rclavicle 9.93923e-015 1.76918e-014
rhumerus -39.7252 24.1026 -78.5544
rradius 79.8585
rwrist 33.7321
rhand 22.1341 -4.56602
rfingers 7.12502
rthumb 46.5177 -27.4418
lclavicle 9.93923e-015 1.76918e-014
lhumerus -44.9866 -21.5431 78.9768
lradius 84.6807
lwrist -25.0308
lhand 15.2246 23.6311
lfingers 7.12502
lthumb 40.0631 48.8381
rfemur -115.805 1.19236 26.9513
rtibia 87.7512
rfoot -2.84763 -6.38123
rtoes 3.05269
lfemur -117.648 2.68416 -21.3033
ltibia 89.8167
lfoot -4.53336 -0.637722
ltoes -15.133
